<svg aria-hidden="true" style="position:absolute;width:0;height:0;overflow:hidden" xmlns="http://www.w3.org/2000/svg"><defs><symbol id="icon-kitchen" viewBox="0 0 40 32"><path stroke-linejoin="round" stroke-width="3" d="M31.66 20h-8.34c-.04-4.92.3-9.88 8.34-16v24h-1.68v-4M13.32 5.32V28m-5-22.68v4c0 1.06.52 2.08 1.46 2.84.94.74 2.22 1.16 3.54 1.16s2.6-.42 3.54-1.16c.94-.76 1.46-1.78 1.46-2.84v-4"/></symbol><symbol id="icon-petrol" viewBox="0 0 32 32"><path d="m26.352 9.632.016-.016-4.96-4.96L20 6.08l2.8 2.8A3.332 3.332 0 0 0 20.656 12c0 .432.096.864.256 1.264.176.416.416.768.72 1.088a3.34 3.34 0 0 0 2.368.976c.48 0 .912-.112 1.328-.288v9.616c0 .352-.144.688-.4.944-.24.256-.576.4-.928.4a1.28 1.28 0 0 1-.944-.4 1.334 1.334 0 0 1-.4-.944v-6A2.651 2.651 0 0 0 20 16h-1.344V6.656A2.651 2.651 0 0 0 16 4H8a2.648 2.648 0 0 0-2.672 2.656V28h13.328V18h2v6.656c0 .88.352 1.728.976 2.352a3.29 3.29 0 0 0 3.632.736 3.356 3.356 0 0 0 1.088-.736c.304-.304.56-.672.72-1.072s.256-.832.256-1.28V12c0-.928-.368-1.776-.976-2.368zM16 18v7.328H8V16h8v2zm0-4.672H8V6.656h8v6.672zm8 0a1.28 1.28 0 0 1-.944-.4 1.27 1.27 0 0 1-.4-.928c0-.368.144-.704.4-.944.24-.256.576-.4.944-.4.352 0 .688.144.928.4.256.24.4.576.4.944 0 .352-.144.688-.4.928-.24.256-.576.4-.928.4z"/></symbol><symbol id="icon-heart" viewBox="0 0 32 32"><path stroke-linejoin="round" stroke-width="3.067" d="M25.4 4.547a7.491 7.491 0 0 0-2.8-.56c-.973 0-1.92.2-2.813.56a7.175 7.175 0 0 0-2.373 1.6L16.001 7.56l-1.413-1.413a7.339 7.339 0 0 0-5.187-2.16 7.294 7.294 0 0 0-5.187 2.16 7.292 7.292 0 0 0-2.16 5.187c0 1.933.773 3.8 2.16 5.187l11.787 11.787 11.787-11.787a7.55 7.55 0 0 0 1.587-2.387c.36-.893.56-1.84.56-2.8 0-.973-.2-1.92-.56-2.813a7.341 7.341 0 0 0-1.587-2.373 7.358 7.358 0 0 0-2.387-1.6z"/></symbol><symbol id="icon-VAN" viewBox="0 0 46 32"><path d="M2.606 1.794h12.4a.431.431 0 0 0 .286-.114L16.481.514A1.872 1.872 0 0 1 17.784 0h18.811c.88 0 1.691.423 2.171 1.131l2.263 3.303c.32.469.343 1.063.08 1.566-.274.491-.8.8-1.383.8h-9.691v.96h4.96c1.314 0 2.503.754 3.017 1.943l2.914 6.651 2.549.994c1.36.526 2.24 1.794 2.24 3.223v6.16c0 .914-.777 1.669-1.714 1.669h-2.96c-.343 2.034-2.171 3.6-4.354 3.6s-4-1.566-4.354-3.6H16.139c-.354 2.034-2.171 3.6-4.354 3.6s-4-1.566-4.354-3.6h-5.92c-.834 0-1.509-.674-1.509-1.486V4.343c0-1.406 1.166-2.549 2.606-2.549zm34.08 28.789c1.634 0 2.971-1.291 2.971-2.891s-1.337-2.891-2.971-2.891c-1.634 0-2.971 1.291-2.971 2.891s1.337 2.891 2.971 2.891zm-6.652-3.589h2.297c.011-.046.023-.08.023-.114.011-.023.011-.046.011-.069.011-.057.034-.103.046-.16v-.034c.023-.069.046-.137.057-.194.011-.023.023-.034.023-.057.011-.046.034-.091.046-.137l.034-.069c.011-.034.023-.08.046-.114.011-.023.023-.057.034-.08a.389.389 0 0 1 .046-.103c.011-.023.023-.057.034-.08.023-.034.034-.069.057-.103a.23.23 0 0 1 .046-.069.441.441 0 0 1 .057-.103.23.23 0 0 1 .046-.069c.023-.034.034-.069.057-.103.023-.023.034-.046.046-.069.023-.034.057-.069.08-.103.011-.023.023-.034.046-.057l.103-.137c.011 0 .011-.011.023-.011.034-.057.08-.103.126-.149.011-.023.034-.034.046-.046.034-.034.057-.069.091-.103a.13.13 0 0 0 .057-.057c.034-.023.057-.046.091-.08a.13.13 0 0 0 .057-.057c.034-.023.069-.046.091-.069l.069-.057c.034-.023.057-.046.091-.069.023-.023.046-.034.069-.046l.103-.069c.023-.023.046-.034.069-.046l.103-.069c.023-.011.046-.034.069-.046a.506.506 0 0 1 .114-.057c.023-.011.034-.023.057-.034.057-.034.114-.057.171-.091h.011c.057-.034.126-.057.183-.08l.069-.034c.034-.011.08-.023.126-.046.023-.011.046-.011.08-.023s.069-.034.114-.046a.202.202 0 0 0 .08-.023c.046-.011.08-.023.114-.034.034 0 .057-.011.091-.011l.114-.034c.034 0 .057-.011.091-.011a.422.422 0 0 1 .126-.023c.023-.011.057-.011.08-.011.046-.011.091-.011.126-.023.034 0 .057 0 .091-.011.046 0 .091 0 .137-.011H36.971a.68.68 0 0 0 .149.011.201.201 0 0 0 .08.011c.046.011.08.011.126.023.034 0 .057 0 .091.011.034 0 .08.011.114.023.034 0 .057.011.091.011l.114.034c.034 0 .057.011.091.011l.114.034a.22.22 0 0 0 .08.023c.046.011.08.034.126.046.023.011.046.011.069.023.046.023.091.034.137.046a.237.237 0 0 0 .057.034c.057.023.126.046.183.08h.011c.057.034.114.057.171.091.023.011.034.023.057.034.046.011.08.034.114.057.023.011.046.034.069.046l.103.069c.023.011.057.023.08.046s.057.046.091.069a.23.23 0 0 1 .069.046c.034.023.057.046.091.069l.069.057c.034.023.057.046.091.069.023.023.034.046.057.057a.593.593 0 0 0 .091.08c.023.023.034.046.057.057a.7.7 0 0 1 .091.103.09.09 0 0 1 .046.046c.046.046.091.091.137.149l.011.011c.034.046.069.091.114.137.011.023.023.034.034.057.023.034.057.069.08.103a.23.23 0 0 0 .046.069l.069.103.034.069.069.103.034.069c.023.034.034.069.057.103.011.023.023.057.034.08.023.034.034.069.057.103a.22.22 0 0 1 .023.08c.023.034.034.08.057.114 0 .023.011.046.023.069.011.046.034.091.046.137.011.023.011.034.023.057.023.057.034.126.057.194v.034a.876.876 0 0 1 .046.16c0 .023.011.046.011.069.011.034.011.069.023.114h2.96a.266.266 0 0 0 .263-.263v-2.949h-1.12v-1.406h1.12V20.57c0-.857-.514-1.611-1.326-1.92l-2.697-1.051H30.03v9.394zm0-10.8h9.246l-2.594-5.943a1.825 1.825 0 0 0-1.691-1.086h-4.96v7.029zM11.783 30.583c1.634 0 2.971-1.291 2.971-2.891s-1.337-2.891-2.971-2.891h-.149c-1.371.069-2.491 1.04-2.754 2.309-.011.046-.023.091-.034.149-.011.091-.023.183-.023.286-.011.046-.011.103-.011.149 0 1.6 1.337 2.891 2.971 2.891zM1.44 22.377h1.12v1.406H1.44v3.131c0 .046.034.08.069.08h5.92c.011-.046.011-.08.023-.114 0-.023.011-.046.011-.069a.803.803 0 0 1 .046-.16v-.034c.023-.069.046-.126.057-.194.011-.023.023-.046.023-.057.011-.046.034-.091.046-.137l.034-.069c.011-.034.023-.08.046-.114.011-.023.023-.057.034-.08a.389.389 0 0 1 .046-.103c.011-.023.023-.057.034-.08.023-.034.034-.069.057-.103a.23.23 0 0 1 .046-.069.441.441 0 0 1 .057-.103.23.23 0 0 1 .046-.069.441.441 0 0 1 .057-.103c.023-.023.034-.046.046-.069.023-.034.057-.069.08-.103.011-.023.023-.034.046-.057.034-.046.069-.091.103-.126 0-.011.011-.023.011-.023.046-.057.091-.103.137-.149.011-.023.034-.034.046-.046.034-.034.057-.069.091-.103.023-.011.034-.034.057-.057.034-.023.057-.046.091-.08a.13.13 0 0 0 .057-.057c.034-.023.069-.046.091-.069s.046-.034.069-.057c.034-.023.057-.046.091-.069.023-.023.046-.034.069-.046l.103-.069c.023-.023.046-.034.069-.046l.103-.069c.023-.011.046-.034.069-.046a.349.349 0 0 1 .114-.057c.023-.011.034-.023.057-.034.057-.034.114-.057.171-.091h.011c.057-.034.126-.057.183-.08l.069-.034c.034-.011.08-.023.126-.046.023-.011.046-.011.08-.023s.069-.034.114-.046a.202.202 0 0 0 .08-.023c.046-.011.08-.023.114-.034.034 0 .057-.011.091-.011l.114-.034c.034 0 .057-.011.091-.011a.42.42 0 0 1 .114-.023c.034-.011.057-.011.091-.011.046-.011.08-.011.126-.023.034 0 .057 0 .08-.011.057 0 .103 0 .149-.011H12.068a.628.628 0 0 0 .149.011.176.176 0 0 0 .08.011c.046.011.08.011.126.023.034 0 .057 0 .091.011.034 0 .08.011.114.023.034 0 .057.011.091.011l.114.034c.034 0 .057.011.091.011l.114.034a.22.22 0 0 0 .08.023c.046.011.08.034.126.046.023.011.046.011.069.023.046.023.091.034.137.046a.237.237 0 0 0 .057.034c.057.023.126.046.183.08h.011c.057.034.114.057.171.091.023.011.034.023.057.034.046.011.08.034.114.057.023.011.046.034.069.046l.103.069a.569.569 0 0 1 .08.046c.023.023.057.046.091.069a.23.23 0 0 1 .069.046c.034.023.057.046.091.069.023.023.046.034.069.057s.057.046.091.069a.13.13 0 0 0 .057.057.593.593 0 0 0 .091.08c.023.023.034.046.057.057a.7.7 0 0 1 .091.103.09.09 0 0 1 .046.046c.046.046.091.091.137.149l.011.011.103.137a.21.21 0 0 1 .046.057c.023.034.057.069.08.103a.23.23 0 0 0 .046.069.441.441 0 0 1 .057.103c.023.023.034.046.046.069a.441.441 0 0 1 .057.103c.023.023.034.046.046.069.023.034.034.069.057.103.011.023.023.057.034.08.023.034.034.069.046.103.011.023.023.057.034.08.023.034.034.08.057.114 0 .023.011.046.023.069.011.046.034.091.046.137.011.023.011.034.023.057.011.057.034.126.057.194v.034c.023.046.034.103.046.16 0 .023.011.046.011.069.011.034.011.069.023.114H28.58V6.09c0-.389.331-.697.72-.697h10.423c.023 0 .069 0 .103-.069.034-.057.011-.103 0-.114l-2.251-3.303a1.188 1.188 0 0 0-.983-.503H17.781a.417.417 0 0 0-.286.103l-1.189 1.166a1.83 1.83 0 0 1-1.303.526h-12.4c-.651 0-1.166.514-1.166 1.143v18.034z"/><path d="M5.531 7.189h8.811c1.017 0 1.851.811 1.851 1.806v4.103c0 .994-.834 1.806-1.851 1.806H5.531c-1.017 0-1.851-.811-1.851-1.806V8.995c0-.994.834-1.806 1.851-1.806zm-.411 5.908c0 .217.183.389.411.389h8.811c.229 0 .411-.171.411-.389V8.994c0-.217-.183-.4-.411-.4H5.531a.407.407 0 0 0-.411.4v4.103z"/></symbol><symbol id="icon-Fully" viewBox="0 0 46 32"><path d="M2.606 1.794h12.4a.431.431 0 0 0 .286-.114L16.481.514A1.872 1.872 0 0 1 17.784 0h18.811c.88 0 1.691.423 2.171 1.131l2.263 3.303c.32.469.343 1.063.08 1.566-.274.491-.8.8-1.383.8h-9.691v.96h4.96c1.314 0 2.503.754 3.017 1.943l2.914 6.651 2.549.994c1.36.526 2.24 1.794 2.24 3.223v6.16c0 .914-.777 1.669-1.714 1.669h-2.96c-.343 2.034-2.171 3.6-4.354 3.6s-4-1.566-4.354-3.6H16.139c-.354 2.034-2.171 3.6-4.354 3.6s-4-1.566-4.354-3.6h-5.92c-.834 0-1.509-.674-1.509-1.486V4.343c0-1.406 1.166-2.549 2.606-2.549zm34.08 28.789c1.634 0 2.971-1.291 2.971-2.891s-1.337-2.891-2.971-2.891c-1.634 0-2.971 1.291-2.971 2.891s1.337 2.891 2.971 2.891zm-6.652-3.589h2.297c.011-.046.023-.08.023-.114.011-.023.011-.046.011-.069.011-.057.034-.103.046-.16v-.034c.023-.069.046-.137.057-.194.011-.023.023-.034.023-.057.011-.046.034-.091.046-.137l.034-.069c.011-.034.023-.08.046-.114.011-.023.023-.057.034-.08a.389.389 0 0 1 .046-.103c.011-.023.023-.057.034-.08.023-.034.034-.069.057-.103a.23.23 0 0 1 .046-.069.441.441 0 0 1 .057-.103.23.23 0 0 1 .046-.069c.023-.034.034-.069.057-.103.023-.023.034-.046.046-.069.023-.034.057-.069.08-.103.011-.023.023-.034.046-.057l.103-.137c.011 0 .011-.011.023-.011.034-.057.08-.103.126-.149.011-.023.034-.034.046-.046.034-.034.057-.069.091-.103a.13.13 0 0 0 .057-.057c.034-.023.057-.046.091-.08a.13.13 0 0 0 .057-.057c.034-.023.069-.046.091-.069l.069-.057c.034-.023.057-.046.091-.069.023-.023.046-.034.069-.046l.103-.069c.023-.023.046-.034.069-.046l.103-.069c.023-.011.046-.034.069-.046a.506.506 0 0 1 .114-.057c.023-.011.034-.023.057-.034.057-.034.114-.057.171-.091h.011c.057-.034.126-.057.183-.08l.069-.034c.034-.011.08-.023.126-.046.023-.011.046-.011.08-.023s.069-.034.114-.046a.202.202 0 0 0 .08-.023c.046-.011.08-.023.114-.034.034 0 .057-.011.091-.011l.114-.034c.034 0 .057-.011.091-.011a.422.422 0 0 1 .126-.023c.023-.011.057-.011.08-.011.046-.011.091-.011.126-.023.034 0 .057 0 .091-.011.046 0 .091 0 .137-.011H36.971a.68.68 0 0 0 .149.011.201.201 0 0 0 .08.011c.046.011.08.011.126.023.034 0 .057 0 .091.011.034 0 .08.011.114.023.034 0 .057.011.091.011l.114.034c.034 0 .057.011.091.011l.114.034a.22.22 0 0 0 .08.023c.046.011.08.034.126.046.023.011.046.011.069.023.046.023.091.034.137.046a.237.237 0 0 0 .057.034c.057.023.126.046.183.08h.011c.057.034.114.057.171.091.023.011.034.023.057.034.046.011.08.034.114.057.023.011.046.034.069.046l.103.069c.023.011.057.023.08.046s.057.046.091.069a.23.23 0 0 1 .069.046c.034.023.057.046.091.069l.069.057c.034.023.057.046.091.069.023.023.034.046.057.057a.593.593 0 0 0 .091.08c.023.023.034.046.057.057a.7.7 0 0 1 .091.103.09.09 0 0 1 .046.046c.046.046.091.091.137.149l.011.011c.034.046.069.091.114.137.011.023.023.034.034.057.023.034.057.069.08.103a.23.23 0 0 0 .046.069l.069.103.034.069.069.103.034.069c.023.034.034.069.057.103.011.023.023.057.034.08.023.034.034.069.057.103a.22.22 0 0 1 .023.08c.023.034.034.08.057.114 0 .023.011.046.023.069.011.046.034.091.046.137.011.023.011.034.023.057.023.057.034.126.057.194v.034a.876.876 0 0 1 .046.16c0 .023.011.046.011.069.011.034.011.069.023.114h2.96a.266.266 0 0 0 .263-.263v-2.949h-1.12v-1.406h1.12V20.57c0-.857-.514-1.611-1.326-1.92l-2.697-1.051H30.03v9.394zm0-10.8h9.246l-2.594-5.943a1.825 1.825 0 0 0-1.691-1.086h-4.96v7.029zM11.783 30.583c1.634 0 2.971-1.291 2.971-2.891s-1.337-2.891-2.971-2.891h-.149c-1.371.069-2.491 1.04-2.754 2.309-.011.046-.023.091-.034.149-.011.091-.023.183-.023.286-.011.046-.011.103-.011.149 0 1.6 1.337 2.891 2.971 2.891zM1.44 22.377h1.12v1.406H1.44v3.131c0 .046.034.08.069.08h5.92c.011-.046.011-.08.023-.114 0-.023.011-.046.011-.069a.803.803 0 0 1 .046-.16v-.034c.023-.069.046-.126.057-.194.011-.023.023-.046.023-.057.011-.046.034-.091.046-.137l.034-.069c.011-.034.023-.08.046-.114.011-.023.023-.057.034-.08a.389.389 0 0 1 .046-.103c.011-.023.023-.057.034-.08.023-.034.034-.069.057-.103a.23.23 0 0 1 .046-.069.441.441 0 0 1 .057-.103.23.23 0 0 1 .046-.069.441.441 0 0 1 .057-.103c.023-.023.034-.046.046-.069.023-.034.057-.069.08-.103.011-.023.023-.034.046-.057.034-.046.069-.091.103-.126 0-.011.011-.023.011-.023.046-.057.091-.103.137-.149.011-.023.034-.034.046-.046.034-.034.057-.069.091-.103.023-.011.034-.034.057-.057.034-.023.057-.046.091-.08a.13.13 0 0 0 .057-.057c.034-.023.069-.046.091-.069s.046-.034.069-.057c.034-.023.057-.046.091-.069.023-.023.046-.034.069-.046l.103-.069c.023-.023.046-.034.069-.046l.103-.069c.023-.011.046-.034.069-.046a.349.349 0 0 1 .114-.057c.023-.011.034-.023.057-.034.057-.034.114-.057.171-.091h.011c.057-.034.126-.057.183-.08l.069-.034c.034-.011.08-.023.126-.046.023-.011.046-.011.08-.023s.069-.034.114-.046a.202.202 0 0 0 .08-.023c.046-.011.08-.023.114-.034.034 0 .057-.011.091-.011l.114-.034c.034 0 .057-.011.091-.011a.42.42 0 0 1 .114-.023c.034-.011.057-.011.091-.011.046-.011.08-.011.126-.023.034 0 .057 0 .08-.011.057 0 .103 0 .149-.011H12.068a.628.628 0 0 0 .149.011.176.176 0 0 0 .08.011c.046.011.08.011.126.023.034 0 .057 0 .091.011.034 0 .08.011.114.023.034 0 .057.011.091.011l.114.034c.034 0 .057.011.091.011l.114.034a.22.22 0 0 0 .08.023c.046.011.08.034.126.046.023.011.046.011.069.023.046.023.091.034.137.046a.237.237 0 0 0 .057.034c.057.023.126.046.183.08h.011c.057.034.114.057.171.091.023.011.034.023.057.034.046.011.08.034.114.057.023.011.046.034.069.046l.103.069a.569.569 0 0 1 .08.046c.023.023.057.046.091.069a.23.23 0 0 1 .069.046c.034.023.057.046.091.069.023.023.046.034.069.057s.057.046.091.069a.13.13 0 0 0 .057.057.593.593 0 0 0 .091.08c.023.023.034.046.057.057a.7.7 0 0 1 .091.103.09.09 0 0 1 .046.046c.046.046.091.091.137.149l.011.011.103.137a.21.21 0 0 1 .046.057c.023.034.057.069.08.103a.23.23 0 0 0 .046.069.441.441 0 0 1 .057.103c.023.023.034.046.046.069a.441.441 0 0 1 .057.103c.023.023.034.046.046.069.023.034.034.069.057.103.011.023.023.057.034.08.023.034.034.069.046.103.011.023.023.057.034.08.023.034.034.08.057.114 0 .023.011.046.023.069.011.046.034.091.046.137.011.023.011.034.023.057.011.057.034.126.057.194v.034c.023.046.034.103.046.16 0 .023.011.046.011.069.011.034.011.069.023.114H28.58V6.09c0-.389.331-.697.72-.697h10.423c.023 0 .069 0 .103-.069.034-.057.011-.103 0-.114l-2.251-3.303a1.188 1.188 0 0 0-.983-.503H17.781a.417.417 0 0 0-.286.103l-1.189 1.166a1.83 1.83 0 0 1-1.303.526h-12.4c-.651 0-1.166.514-1.166 1.143v18.034z"/><path d="M20.114 7.189h4.549c.926 0 1.68.731 1.68 1.634v15.04a.722.722 0 0 1-.72.709h-6.457c-.4 0-.72-.32-.72-.709V8.823c0-.903.743-1.634 1.669-1.634zm-.228 15.977h5.006v-8.274h-5.006v8.274zm0-9.68h5.006V8.823a.23.23 0 0 0-.229-.229h-4.549a.23.23 0 0 0-.229.229v4.663z"/></symbol><symbol id="icon-Alcove" viewBox="0 0 46 32"><path d="M2.606 1.794h12.4a.431.431 0 0 0 .286-.114L16.481.514A1.872 1.872 0 0 1 17.784 0h18.811c.88 0 1.691.423 2.171 1.131l2.263 3.303c.32.469.343 1.063.08 1.566-.274.491-.8.8-1.383.8h-9.691v.96h4.96c1.314 0 2.503.754 3.017 1.943l2.914 6.651 2.549.994c1.36.526 2.24 1.794 2.24 3.223v6.16c0 .914-.777 1.669-1.714 1.669h-2.96c-.343 2.034-2.171 3.6-4.354 3.6s-4-1.566-4.354-3.6H16.139c-.354 2.034-2.171 3.6-4.354 3.6s-4-1.566-4.354-3.6h-5.92c-.834 0-1.509-.674-1.509-1.486V4.343c0-1.406 1.166-2.549 2.606-2.549zm34.08 28.789c1.634 0 2.971-1.291 2.971-2.891s-1.337-2.891-2.971-2.891c-1.634 0-2.971 1.291-2.971 2.891s1.337 2.891 2.971 2.891zm-6.652-3.589h2.297c.011-.046.023-.08.023-.114.011-.023.011-.046.011-.069.011-.057.034-.103.046-.16v-.034c.023-.069.046-.137.057-.194.011-.023.023-.034.023-.057.011-.046.034-.091.046-.137l.034-.069c.011-.034.023-.08.046-.114.011-.023.023-.057.034-.08a.389.389 0 0 1 .046-.103c.011-.023.023-.057.034-.08.023-.034.034-.069.057-.103a.23.23 0 0 1 .046-.069.441.441 0 0 1 .057-.103.23.23 0 0 1 .046-.069c.023-.034.034-.069.057-.103.023-.023.034-.046.046-.069.023-.034.057-.069.08-.103.011-.023.023-.034.046-.057l.103-.137c.011 0 .011-.011.023-.011.034-.057.08-.103.126-.149.011-.023.034-.034.046-.046.034-.034.057-.069.091-.103a.13.13 0 0 0 .057-.057c.034-.023.057-.046.091-.08a.13.13 0 0 0 .057-.057c.034-.023.069-.046.091-.069l.069-.057c.034-.023.057-.046.091-.069.023-.023.046-.034.069-.046l.103-.069c.023-.023.046-.034.069-.046l.103-.069c.023-.011.046-.034.069-.046a.506.506 0 0 1 .114-.057c.023-.011.034-.023.057-.034.057-.034.114-.057.171-.091h.011c.057-.034.126-.057.183-.08l.069-.034c.034-.011.08-.023.126-.046.023-.011.046-.011.08-.023s.069-.034.114-.046a.202.202 0 0 0 .08-.023c.046-.011.08-.023.114-.034.034 0 .057-.011.091-.011l.114-.034c.034 0 .057-.011.091-.011a.422.422 0 0 1 .126-.023c.023-.011.057-.011.08-.011.046-.011.091-.011.126-.023.034 0 .057 0 .091-.011.046 0 .091 0 .137-.011H36.971a.68.68 0 0 0 .149.011.201.201 0 0 0 .08.011c.046.011.08.011.126.023.034 0 .057 0 .091.011.034 0 .08.011.114.023.034 0 .057.011.091.011l.114.034c.034 0 .057.011.091.011l.114.034a.22.22 0 0 0 .08.023c.046.011.08.034.126.046.023.011.046.011.069.023.046.023.091.034.137.046a.237.237 0 0 0 .057.034c.057.023.126.046.183.08h.011c.057.034.114.057.171.091.023.011.034.023.057.034.046.011.08.034.114.057.023.011.046.034.069.046l.103.069c.023.011.057.023.08.046s.057.046.091.069a.23.23 0 0 1 .069.046c.034.023.057.046.091.069l.069.057c.034.023.057.046.091.069.023.023.034.046.057.057a.593.593 0 0 0 .091.08c.023.023.034.046.057.057a.7.7 0 0 1 .091.103.09.09 0 0 1 .046.046c.046.046.091.091.137.149l.011.011c.034.046.069.091.114.137.011.023.023.034.034.057.023.034.057.069.08.103a.23.23 0 0 0 .046.069l.069.103.034.069.069.103.034.069c.023.034.034.069.057.103.011.023.023.057.034.08.023.034.034.069.057.103a.22.22 0 0 1 .023.08c.023.034.034.08.057.114 0 .023.011.046.023.069.011.046.034.091.046.137.011.023.011.034.023.057.023.057.034.126.057.194v.034a.876.876 0 0 1 .046.16c0 .023.011.046.011.069.011.034.011.069.023.114h2.96a.266.266 0 0 0 .263-.263v-2.949h-1.12v-1.406h1.12V20.57c0-.857-.514-1.611-1.326-1.92l-2.697-1.051H30.03v9.394zm0-10.8h9.246l-2.594-5.943a1.825 1.825 0 0 0-1.691-1.086h-4.96v7.029zM11.783 30.583c1.634 0 2.971-1.291 2.971-2.891s-1.337-2.891-2.971-2.891h-.149c-1.371.069-2.491 1.04-2.754 2.309-.011.046-.023.091-.034.149-.011.091-.023.183-.023.286-.011.046-.011.103-.011.149 0 1.6 1.337 2.891 2.971 2.891zM1.44 22.377h1.12v1.406H1.44v3.131c0 .046.034.08.069.08h5.92c.011-.046.011-.08.023-.114 0-.023.011-.046.011-.069a.803.803 0 0 1 .046-.16v-.034c.023-.069.046-.126.057-.194.011-.023.023-.046.023-.057.011-.046.034-.091.046-.137l.034-.069c.011-.034.023-.08.046-.114.011-.023.023-.057.034-.08a.389.389 0 0 1 .046-.103c.011-.023.023-.057.034-.08.023-.034.034-.069.057-.103a.23.23 0 0 1 .046-.069.441.441 0 0 1 .057-.103.23.23 0 0 1 .046-.069.441.441 0 0 1 .057-.103c.023-.023.034-.046.046-.069.023-.034.057-.069.08-.103.011-.023.023-.034.046-.057.034-.046.069-.091.103-.126 0-.011.011-.023.011-.023.046-.057.091-.103.137-.149.011-.023.034-.034.046-.046.034-.034.057-.069.091-.103.023-.011.034-.034.057-.057.034-.023.057-.046.091-.08a.13.13 0 0 0 .057-.057c.034-.023.069-.046.091-.069s.046-.034.069-.057c.034-.023.057-.046.091-.069.023-.023.046-.034.069-.046l.103-.069c.023-.023.046-.034.069-.046l.103-.069c.023-.011.046-.034.069-.046a.349.349 0 0 1 .114-.057c.023-.011.034-.023.057-.034.057-.034.114-.057.171-.091h.011c.057-.034.126-.057.183-.08l.069-.034c.034-.011.08-.023.126-.046.023-.011.046-.011.08-.023s.069-.034.114-.046a.202.202 0 0 0 .08-.023c.046-.011.08-.023.114-.034.034 0 .057-.011.091-.011l.114-.034c.034 0 .057-.011.091-.011a.42.42 0 0 1 .114-.023c.034-.011.057-.011.091-.011.046-.011.08-.011.126-.023.034 0 .057 0 .08-.011.057 0 .103 0 .149-.011H12.068a.628.628 0 0 0 .149.011.176.176 0 0 0 .08.011c.046.011.08.011.126.023.034 0 .057 0 .091.011.034 0 .08.011.114.023.034 0 .057.011.091.011l.114.034c.034 0 .057.011.091.011l.114.034a.22.22 0 0 0 .08.023c.046.011.08.034.126.046.023.011.046.011.069.023.046.023.091.034.137.046a.237.237 0 0 0 .057.034c.057.023.126.046.183.08h.011c.057.034.114.057.171.091.023.011.034.023.057.034.046.011.08.034.114.057.023.011.046.034.069.046l.103.069a.569.569 0 0 1 .08.046c.023.023.057.046.091.069a.23.23 0 0 1 .069.046c.034.023.057.046.091.069.023.023.046.034.069.057s.057.046.091.069a.13.13 0 0 0 .057.057.593.593 0 0 0 .091.08c.023.023.034.046.057.057a.7.7 0 0 1 .091.103.09.09 0 0 1 .046.046c.046.046.091.091.137.149l.011.011.103.137a.21.21 0 0 1 .046.057c.023.034.057.069.08.103a.23.23 0 0 0 .046.069.441.441 0 0 1 .057.103c.023.023.034.046.046.069a.441.441 0 0 1 .057.103c.023.023.034.046.046.069.023.034.034.069.057.103.011.023.023.057.034.08.023.034.034.069.046.103.011.023.023.057.034.08.023.034.034.08.057.114 0 .023.011.046.023.069.011.046.034.091.046.137.011.023.011.034.023.057.011.057.034.126.057.194v.034c.023.046.034.103.046.16 0 .023.011.046.011.069.011.034.011.069.023.114H28.58V6.09c0-.389.331-.697.72-.697h10.423c.023 0 .069 0 .103-.069.034-.057.011-.103 0-.114l-2.251-3.303a1.188 1.188 0 0 0-.983-.503H17.781a.417.417 0 0 0-.286.103l-1.189 1.166a1.83 1.83 0 0 1-1.303.526h-12.4c-.651 0-1.166.514-1.166 1.143v18.034z"/><path d="M20.114 7.189h4.549c.926 0 1.68.731 1.68 1.634v15.04a.722.722 0 0 1-.72.709h-6.457c-.4 0-.72-.32-.72-.709V8.823c0-.903.743-1.634 1.669-1.634zm-.228 15.977h5.006v-8.274h-5.006v8.274zm0-9.68h5.006V8.823a.23.23 0 0 0-.229-.229h-4.549a.23.23 0 0 0-.229.229v4.663zM5.531 7.189h8.811c1.017 0 1.851.811 1.851 1.806v4.103c0 .994-.834 1.806-1.851 1.806H5.531c-1.017 0-1.851-.811-1.851-1.806V8.995c0-.994.834-1.806 1.851-1.806zm-.411 5.908c0 .217.183.389.411.389h8.811c.229 0 .411-.171.411-.389V8.994c0-.217-.183-.4-.411-.4H5.531a.407.407 0 0 0-.411.4v4.103z"/></symbol><symbol id="icon-WC" viewBox="0 0 32 32"><path stroke-linejoin="round" stroke-width="2" d="m5.33 5.33 3.33 3.33m9.34 0a6.605 6.605 0 0 0-4.66-1.88c-1.74 0-3.4.7-4.63 1.93s-1.93 2.89-1.93 4.63c-.01 1.74.66 3.41 1.88 4.66M20 6.66 6.66 20m12 2.66v.02m-5.33-1.35v.01m4-4.01v.01m4-4.01v.01m-6.67 13.32v.02m8-8.02v.02m4-4.02v.02"/></symbol><symbol id="icon-TV" viewBox="0 0 32 32"><path stroke-linejoin="round" stroke-width="1.8" d="M8 26c-2.22 0-4-1.79-4-4V12c0-2.22 1.78-4 4-4h16c2.21 0 4 1.78 4 4v10c0 2.21-1.79 4-4 4H8z"/><path stroke-linejoin="round" stroke-linecap="round" stroke-width="1.8" d="M12 30h8M16 8l6-6M16 8l-6-6"/></symbol><symbol id="icon-Button" viewBox="0 0 32 32"><path stroke-linejoin="round" stroke-width="2.4" d="M25.328 5.328A2.667 2.667 0 0 1 28 8v18.656c0 1.472-1.2 2.672-2.672 2.672H6.656A2.663 2.663 0 0 1 4 26.656V8a2.653 2.653 0 0 1 2.656-2.672h18.672z"/><path stroke-linejoin="round" stroke-linecap="round" stroke-width="2.4" d="M21.328 2.656v5.328M10.656 2.656v5.328M4 13.328h24"/></symbol><symbol id="icon-AC" viewBox="0 0 40 32"><path d="M19.36 0c-1.86 0-3.68.64-5.14 1.8a8.119 8.119 0 0 0-2.82 4.62l-.14.72c-.04.16-.04.32-.02.48.04.16.1.32.18.46.1.14.22.26.36.36.14.08.3.16.46.18.16.04.34.04.5 0s.32-.1.46-.2c.14-.08.24-.2.34-.34.08-.14.14-.3.18-.46l.14-.72a5.599 5.599 0 0 1 2.18-3.36c1.12-.8 2.5-1.18 3.88-1.04 1.4.14 2.68.76 3.62 1.78A5.663 5.663 0 0 1 25 7.98c0 1.48-.6 2.88-1.66 3.92s-2.48 1.62-3.98 1.62H1.24c-.34 0-.64.14-.88.36-.24.24-.36.56-.36.88s.12.64.36.86c.24.24.54.38.88.38h18.12c2.12-.06 4.14-.92 5.62-2.42S27.3 10.08 27.3 8c0-2.1-.84-4.1-2.32-5.6S21.5.04 19.36 0zm14.38 11.06c-1.66 0-3.24.66-4.42 1.8a6.08 6.08 0 0 0-1.82 4.36c0 .32.12.64.36.88.24.22.54.36.88.36s.64-.14.88-.36c.24-.24.38-.56.38-.88 0-.72.2-1.44.62-2.06.42-.6 1-1.08 1.68-1.36.7-.26 1.44-.34 2.18-.2.72.14 1.38.5 1.92 1 .52.52.88 1.18 1.02 1.9s.06 1.46-.22 2.14c-.28.66-.76 1.24-1.38 1.66-.62.4-1.34.62-2.08.62H1.24c-.34 0-.64.12-.88.36-.24.22-.36.54-.36.86 0 .34.12.64.36.88.24.22.54.36.88.36h24.38c.82 0 1.62.32 2.2.9s.92 1.36.92 2.18c0 .82-.34 1.6-.92 2.18-.6.56-1.38.9-2.22.88-.74 0-1.46-.26-2.04-.72-.56-.48-.94-1.14-1.08-1.86v-.08a1.01 1.01 0 0 0-.18-.46c-.08-.14-.18-.26-.32-.36s-.3-.16-.46-.2c-.16-.04-.32-.06-.5-.02-.16.02-.32.08-.46.18-.14.08-.26.2-.36.32-.08.14-.16.3-.18.46-.04.16-.04.32-.02.48l.02.08c.22 1.3.9 2.48 1.92 3.34 1.02.84 2.32 1.32 3.66 1.32 1.5 0 2.92-.6 3.98-1.64a5.433 5.433 0 0 0 1.66-3.9c0-1.14-.34-2.2-.94-3.08h3.44c1.66 0 3.24-.66 4.42-1.8 1.18-1.16 1.84-2.72 1.84-4.36s-.66-3.2-1.84-4.36a6.37 6.37 0 0 0-4.42-1.8z"/><path d="M25.68 3.2c-.22-.28-.44-.54-.7-.8A8.071 8.071 0 0 0 19.36 0c-.64 0-1.28.06-1.88.22-1.2.28-2.3.82-3.26 1.58-.62.5-1.14 1.08-1.58 1.72-.52.76-.9 1.58-1.14 2.48-.02.14-.06.28-.1.42l-.14.72c-.04.16-.04.32-.02.48.04.16.1.32.18.46.1.14.22.26.36.36.14.08.3.16.46.18.16.04.34.04.5 0s.32-.1.46-.2c.14-.08.24-.2.34-.34.08-.14.14-.3.18-.46l.14-.72c.06-.32.16-.62.28-.9a5.59 5.59 0 0 1 1.9-2.46s.02 0 .02-.02c.94-.68 2.08-1.04 3.24-1.06h.08c.1 0 .22.02.34.02.06 0 .14 0 .2.02 1.4.14 2.68.76 3.62 1.78.06.08.12.14.18.22.56.66.94 1.44 1.14 2.28.08.38.12.8.14 1.2 0 .48-.08.96-.2 1.4-.14.54-.36 1.06-.66 1.54-.22.34-.5.68-.8.98-.28.28-.56.52-.88.72-.48.3-1 .54-1.56.7-.08.02-.14.04-.22.06-.04 0-.1.02-.14.02-.38.08-.78.12-1.18.12H1.24c-.34 0-.64.14-.88.36-.24.24-.36.56-.36.88s.12.64.36.86c.24.24.54.38.88.38h18.12c.14-.02.28-.02.42-.02.08-.02.18-.02.26-.04h.04c.28-.04.58-.08.84-.14 1.54-.34 2.96-1.1 4.06-2.22l.2-.2c.66-.74 1.2-1.56 1.56-2.46.28-.76.48-1.54.54-2.34 0-.2.02-.4.02-.58 0-.9-.16-1.8-.46-2.62-.26-.78-.66-1.52-1.16-2.18zm8.98 7.94c-.3-.06-.6-.08-.92-.08-1.66 0-3.24.66-4.42 1.8-.16.18-.32.34-.46.52-.08.1-.18.22-.26.34a6.055 6.055 0 0 0-1.1 3.5c0 .2.04.4.14.58.06.1.12.2.22.3.16.16.38.26.6.32.08.02.18.04.28.04.34 0 .64-.14.88-.36.24-.24.38-.56.38-.88 0-.72.2-1.44.62-2.06.14-.2.32-.4.5-.58.34-.32.74-.58 1.18-.78.54-.2 1.1-.3 1.66-.26.18 0 .34.02.52.06.6.12 1.16.38 1.64.76.1.08.18.16.28.24.52.52.88 1.18 1.02 1.9.04.24.06.48.08.72v.02c-.02.48-.1.94-.3 1.4 0 .02-.02.04-.02.06-.12.28-.28.54-.46.78-.26.3-.56.58-.9.82-.56.36-1.22.58-1.9.6-.06.02-.12.02-.18.02H1.24c-.34 0-.64.12-.88.36-.24.22-.36.54-.36.86 0 .34.12.64.36.88.24.22.54.36.88.36h24.38c.68 0 1.32.22 1.86.6.12.1.24.2.34.3.44.42.72.96.84 1.54.02.06.04.12.04.18.02.16.04.3.04.46 0 .72-.26 1.42-.74 1.96-.06.08-.12.14-.18.22-.6.56-1.38.9-2.22.88-.74 0-1.46-.26-2.04-.72-.56-.48-.94-1.14-1.08-1.86v-.08c-.02-.14-.08-.28-.14-.4 0-.02-.02-.04-.04-.06-.08-.14-.18-.26-.32-.36s-.28-.16-.44-.2h-.02c-.08-.02-.16-.04-.24-.04s-.16 0-.26.02c-.12.02-.24.06-.34.12-.04 0-.08.02-.12.06-.14.08-.26.2-.36.32-.08.14-.16.3-.18.46-.04.16-.04.32-.02.48l.02.08c.22 1.3.9 2.48 1.92 3.34.1.08.22.16.32.24.96.7 2.14 1.08 3.34 1.08 1.22 0 2.38-.4 3.34-1.08.08-.06.14-.12.22-.18.14-.12.3-.24.42-.38.28-.26.5-.54.72-.84.26-.4.48-.82.64-1.28a5.453 5.453 0 0 0 .24-2.58c0-.08-.02-.18-.04-.26-.14-.74-.44-1.42-.84-2.02h3.44c1.54 0 3-.56 4.14-1.56.1-.08.2-.16.28-.24.62-.62 1.1-1.34 1.4-2.14.28-.7.44-1.44.44-2.22a6.1 6.1 0 0 0-1.84-4.36c-.38-.38-.82-.7-1.3-.96-.54-.32-1.12-.54-1.74-.68-.14-.04-.3-.06-.46-.08z"/></symbol><symbol id="icon-beds" viewBox="0 0 32 32"><path stroke-linejoin="round" stroke-linecap="round" stroke-width="2.24" d="M6 14.992V8.496c0-.672.256-1.296.72-1.776A2.532 2.532 0 0 1 8.496 6h14.992c.672 0 1.296.256 1.776.72.464.48.72 1.104.736 1.776v6.496H6zM2.992 26v-7.008c0-1.056.432-2.08 1.168-2.832a4.078 4.078 0 0 1 2.832-1.168h18c1.056 0 2.08.432 2.832 1.168a4.078 4.078 0 0 1 1.168 2.832V26"/><path stroke-linejoin="round" stroke-width="2.24" d="M2.992 26v-.512c0-.4.16-.768.448-1.056A1.436 1.436 0 0 1 4.496 24h22.992c.4 0 .784.144 1.056.432.288.288.448.656.448 1.056V26m-22-11.008V14a1.998 1.998 0 0 1 2-2H14c.528 0 1.024.208 1.408.576.368.384.576.88.592 1.424v.992M16 14c0-.544.208-1.04.576-1.424.384-.368.88-.576 1.424-.576h4.992a1.998 1.998 0 0 1 2 2v.992"/></symbol><symbol id="icon-Route" viewBox="0 0 32 32"><path d="M6.656 4C5.184 4 4 5.184 4 6.656s1.184 2.672 2.656 2.672c1.472 0 2.672-1.2 2.672-2.672S8.128 4 6.656 4zM1.328 6.656c0-2.944 2.384-5.328 5.328-5.328S12 3.712 12 6.656C12 9.6 9.6 12 6.656 12S1.328 9.6 1.328 6.656zM25.328 22.656c-1.472 0-2.672 1.2-2.672 2.672S23.856 28 25.328 28C26.8 28 28 26.8 28 25.328s-1.2-2.672-2.672-2.672zM20 25.328C20 22.384 22.384 20 25.328 20s5.328 2.384 5.328 5.328c0 2.944-2.384 5.328-5.328 5.328S20 28.272 20 25.328z"/><path d="M13.328 6.656c0-.736.592-1.328 1.328-1.328h8.4c4.128 0 5.616 5.408 1.984 7.424l-15.472 8.8A1.304 1.304 0 0 0 10.256 24h7.072c.736 0 1.328.592 1.328 1.328s-.592 1.328-1.328 1.328h-7.072c-4.128 0-5.616-5.408-1.984-7.424l15.472-8.8C24.912 9.776 24.528 8 23.056 8h-8.4a1.338 1.338 0 0 1-1.328-1.344z"/></symbol><symbol id="icon-authomatic" viewBox="0 0 32 32"><path stroke-linejoin="round" stroke-linecap="round" stroke-width="2.4" d="M22.656 28H24c.704 0 1.376-.288 1.872-.784.512-.512.784-1.184.784-1.888s-.272-1.392-.784-1.888A2.654 2.654 0 0 0 24 22.656h-1.344V28zm0-13.344h2c.528 0 1.04-.208 1.424-.576.368-.384.576-.896.576-1.424s-.208-1.04-.576-1.408a2.011 2.011 0 0 0-1.424-.592h-2v6.672M4.768 8.544c.512.496 1.184.784 1.888.784s1.392-.288 1.888-.784c.496-.496.784-1.184.784-1.888S9.04 5.28 8.544 4.768C8.048 4.272 7.36 4 6.656 4s-1.376.272-1.888.768C4.272 5.28 4 5.952 4 6.656s.272 1.392.768 1.888z"/><path stroke-linejoin="round" stroke-width="2.4" d="M6.656 9.328v4c0 .352.144.688.4.944.24.24.576.384.928.384h9.344m-5.344 0V24c0 .352.144.688.4.928.256.256.592.4.944.4h4"/></symbol><symbol id="icon-Users" viewBox="0 0 32 32"><path d="M9.056 24.128h-4.4c-.256 0-.4-.128-.528-.272-.128-.128-.272-.4-.128-.656.8-2.272 2.8-3.6 5.056-3.6 2.8 0 5.072-2.4 5.072-5.2s-2.272-5.472-5.072-5.472c-2.8 0-5.056 2.4-5.056 5.328 0 1.344.528 2.672 1.328 3.6-1.728.944-3.072 2.4-3.872 4.4C1.2 23.2 1.328 24.4 2 25.328c.656.928 1.6 1.472 2.656 1.472h4.4c.8 0 1.344-.544 1.344-1.344s-.544-1.328-1.344-1.328zm-2.4-9.872c0-1.456 1.072-2.528 2.4-2.528 1.344 0 2.4 1.2 2.4 2.528 0 1.472-1.056 2.544-2.4 2.544-1.328 0-2.4-1.2-2.4-2.544z"/><path d="M30.528 21.456c-.928-2.528-2.8-4.4-4.928-5.456 1.2-1.072 1.856-2.672 1.856-4.544C27.456 8 24.8 5.2 21.6 5.2s-5.872 2.8-5.872 6.256A6.36 6.36 0 0 0 17.6 16a9.968 9.968 0 0 0-4.944 5.456c-.656 1.2-.4 2.544.272 3.6.672 1.072 1.872 1.6 3.072 1.6h11.056c1.2 0 2.4-.656 3.072-1.6.8-1.056.928-2.4.4-3.6zM18.256 11.6c0-2 1.472-3.6 3.2-3.6 1.744 0 3.2 1.6 3.2 3.6s-1.456 3.6-3.2 3.6c-1.728 0-3.2-1.744-3.2-3.6zm9.6 12c-.128.128-.4.528-.8.528H16c-.544 0-.8-.4-.8-.528-.144-.144-.4-.672-.144-1.2 1.072-2.8 3.744-4.672 6.544-4.672s5.456 1.872 6.528 4.672c.128.528-.128 1.056-.272 1.2z"/></symbol><symbol id="icon-location" viewBox="0 0 29 32"><path stroke-linejoin="round" stroke-width="2.4" d="M14.4 30.656s-12-8-12-17.328a12 12 0 0 1 3.504-8.48 12.014 12.014 0 0 1 8.496-3.52 12.016 12.016 0 0 1 12 12c0 9.328-12 17.328-12 17.328z"/><path stroke-linejoin="round" stroke-width="2.4" d="M14.4 17.328c-2.224 0-4-1.792-4-4s1.776-4 4-4c2.208 0 4 1.792 4 4s-1.792 4-4 4z"/></symbol><symbol id="icon-rating" viewBox="0 0 32 32"><path d="m15.1 1.66-3.78 7.16c-.14.28-.4.46-.7.52l-7.98 1.38c-.8.14-1.1 1.1-.54 1.68l5.64 5.8c.22.24.32.54.26.84l-1.14 8.02c-.12.8.7 1.4 1.42 1.04l7.26-3.58c.28-.12.62-.12.9 0l7.26 3.58a.99.99 0 0 0 1.42-1.04l-1.14-8.02c-.06-.3.04-.6.26-.84l5.64-5.8a.994.994 0 0 0-.54-1.68l-7.98-1.38a.983.983 0 0 1-.7-.52l-3.78-7.16c-.38-.7-1.4-.7-1.78 0z"/><path d="m11.32 8.82 3.78-7.16c.38-.7 1.4-.7 1.78 0l3.78 7.16c.14.28.4.46.7.52l7.98 1.38c.8.14 1.1 1.1.54 1.68l-5.64 5.8c-.22.24-.32.54-.26.84l1.14 8.02c.12.8-.7 1.4-1.42 1.04l-7.26-3.58a1.17 1.17 0 0 0-.9 0L8.28 28.1a.99.99 0 0 1-1.42-1.04L8 19.04c.06-.3-.04-.6-.26-.84L2.1 12.4a.994.994 0 0 1 .54-1.68l7.98-1.38c.3-.06.56-.24.7-.52zm2.14 1.12c-.5.94-1.4 1.58-2.44 1.76l-5.36.94 3.8 3.9c.74.76 1.08 1.8.92 2.84l-.78 5.4 4.88-2.4c.96-.48 2.06-.48 3.02 0l4.88 2.4-.78-5.4c-.16-1.04.18-2.08.92-2.84l3.8-3.9-5.36-.94a3.411 3.411 0 0 1-2.44-1.76L16 5.14l-2.54 4.8z"/></symbol><symbol id="icon-close" viewBox="0 0 32 32"><path stroke-linejoin="round" stroke-linecap="round" stroke-width="3" d="M24 8 8 24M8 8l16 16"/></symbol><symbol id="icon-hob" viewBox="0 0 32 32"><path stroke-width="2.4" d="M28 6.656c.352 0 .688.144.928.4.256.24.4.576.4.944v17.328c0 .352-.144.688-.4.944a1.32 1.32 0 0 1-.928.384H4a1.33 1.33 0 0 1-.944-.384 1.334 1.334 0 0 1-.4-.944V8c0-.368.144-.704.4-.944.24-.256.576-.4.944-.4h24zm-16 0v20"/><path stroke-linejoin="round" stroke-width="2.4" d="M7.328 11.328V14m17.328-3.344-8 11.344"/><path d="M7.328 16.656c.736 0 1.328.592 1.328 1.344 0 .736-.592 1.328-1.328 1.328S6 18.736 6 18c0-.752.592-1.344 1.328-1.344zM7.328 20.656c.736 0 1.328.592 1.328 1.344 0 .736-.592 1.328-1.328 1.328S6 22.736 6 22c0-.752.592-1.344 1.328-1.344z"/></symbol><symbol id="icon-radio" viewBox="0 0 32 32"><path stroke-width="2.315" d="M2.885 8.833C4.63 7.088 7.426 7.088 13.018 7.088h5.93c5.61 0 8.406 0 10.133 1.745 1.745 1.727 1.745 4.523 1.745 10.133 0 5.592 0 8.388-1.745 10.133-1.727 1.727-4.523 1.727-10.133 1.727h-5.93c-5.592 0-8.388 0-10.133-1.727C1.14 27.354 1.14 24.558 1.14 18.966c0-5.61 0-8.406 1.745-10.133z"/><path stroke-width="2.315" d="M6.465 12.413a3.028 3.028 0 0 1 2.101-.873h14.835c.801 0 1.549.321 2.101.873.57.552.873 1.3.873 2.101a2.948 2.948 0 0 1-2.974 2.956H8.566a3.007 3.007 0 0 1-2.101-.855 3.028 3.028 0 0 1-.873-2.101c0-.801.321-1.549.873-2.101zm4.416 12.573c-.41.427-.979.659-1.567.659s-1.158-.232-1.585-.659c-.41-.41-.641-.98-.641-1.567s.232-1.158.641-1.585c.427-.41.997-.641 1.585-.641s1.158.232 1.567.641c.427.427.659.997.659 1.585s-.232 1.158-.659 1.567zM20.445 15.244v2.226m-2.974 5.949h7.426M7.818 7.088l12.627-5.93"/></symbol><symbol id="icon-air" viewBox="0 0 32 32"><path stroke-linejoin="round" stroke-width="2.4" d="M3.424 1.136c-.608 0-1.184.24-1.616.672s-.672 1.008-.672 1.616v11.424c0 .608.24 1.184.672 1.616s1.008.672 1.616.672H28.56c.608 0 1.184-.24 1.616-.672s.672-1.008.672-1.616V3.424c0-.608-.24-1.184-.672-1.616s-1.008-.672-1.616-.672H3.424z"/><path stroke-linejoin="round" stroke-width="2.4" d="M25.136 17.136V12.56c0-.608-.24-1.184-.672-1.616s-1.008-.672-1.616-.672H9.136c-.608 0-1.184.24-1.616.672s-.672 1.008-.672 1.616v4.576M5.712 28.56h.224a3.197 3.197 0 0 0 3.2-3.2v-2.512m17.136 5.712h-.224a3.197 3.197 0 0 1-3.2-3.2v-2.512m-6.848 8v-8"/></symbol><symbol id="icon-CD" viewBox="0 0 32 32"><path stroke-width="2.909" d="M16 30.545C7.951 30.545 1.455 24.029 1.455 16A14.525 14.525 0 0 1 16 1.455c8.029 0 14.545 6.497 14.545 14.545 0 8.029-6.516 14.545-14.545 14.545z"/><path stroke-linecap="round" stroke-width="2.909" d="M7.098 16A8.89 8.89 0 0 1 16 7.098"/><path stroke-width="2.909" d="M16 20.034a4.039 4.039 0 0 1-4.053-4.053A4.035 4.035 0 0 1 16 11.947a4.031 4.031 0 0 1 4.034 4.034A4.035 4.035 0 0 1 16 20.034z"/></symbol><symbol id="icon-microwave" viewBox="0 0 32 32"><path stroke-linejoin="round" stroke-width="2.24" d="M2.272 5.712c-.304 0-.592.112-.8.336a1.076 1.076 0 0 0-.336.8v18.288c0 .304.112.592.336.8.208.224.496.336.8.336h27.44c.304 0 .592-.112.8-.336.224-.208.336-.496.336-.8V6.848c0-.304-.112-.592-.336-.8a1.076 1.076 0 0 0-.8-.336H2.272z"/><path stroke-linejoin="round" stroke-width="2.24" d="M6.848 10.272a1.14 1.14 0 0 0-.8.336 1.137 1.137 0 0 0-.336.816v9.136c0 .304.112.592.336.816.208.208.496.336.8.336h12.576c.304 0 .592-.128.8-.336.224-.224.336-.512.336-.816v-9.136c0-.304-.112-.592-.336-.816a1.14 1.14 0 0 0-.8-.336H6.848zm18.288 1.152h1.136M25.136 16h1.136"/></symbol><symbol id="icon-water" viewBox="0 0 32 32"><path stroke-width="2.4" d="M16 28.992c-5.536 0-9.008-3.472-9.008-8.992 0-5.936 6.448-13.936 8.432-16.256.064-.08.16-.144.256-.192s.208-.064.32-.064c.096 0 .208.016.304.064s.192.112.256.192c1.984 2.32 8.432 10.32 8.432 16.256 0 5.52-3.472 8.992-8.992 8.992z"/><path stroke-linejoin="round" stroke-linecap="round" stroke-width="2.4" d="M21.488 20.496a4.505 4.505 0 0 1-1.312 3.184 4.545 4.545 0 0 1-3.184 1.312"/></symbol><symbol id="icon-gas" viewBox="0 0 32 32"><path d="M25.056 13.984c-.368-.448-.8-.848-1.216-1.232-1.072-.912-2.288-1.568-3.312-2.512-2.384-2.208-2.912-5.856-1.392-8.64-1.52.336-2.848 1.12-3.984 1.984-4.144 3.152-5.776 8.688-3.824 13.456.064.144.128.304.128.496 0 .336-.24.64-.56.752-.368.16-.752.064-1.056-.176a.834.834 0 0 1-.224-.256c-1.808-2.16-2.096-5.264-.88-7.744-2.672 2.064-4.128 5.536-3.92 8.816.096.752.192 1.504.464 2.256.224.912.656 1.824 1.136 2.624 1.728 2.608 4.72 4.48 7.936 4.864 3.424.4 7.088-.176 9.712-2.416 2.912-2.512 3.936-6.528 2.432-9.968l-.208-.4c-.336-.688-1.232-1.904-1.232-1.904zm-5.04 9.52a5.423 5.423 0 0 1-1.76.912c-1.792.592-3.584-.24-4.64-1.248 1.904-.416 3.04-1.744 3.376-3.088.272-1.216-.24-2.208-.448-3.376-.192-1.12-.16-2.064.272-3.12.304.576.624 1.152 1.008 1.616 1.232 1.504 3.168 2.176 3.584 4.224.064.208.096.416.096.656.048 1.232-.528 2.592-1.488 3.424z"/></symbol><symbol id="icon-freezer" viewBox="0 0 32 32"><path stroke-linejoin="round" stroke-width="2.08" d="M23.392 2.992a2 2 0 0 1 2 2v20.384a2 2 0 0 1-2 2h-14.8a2 2 0 0 1-2-2V4.992a2 2 0 0 1 2-2h14.8z"/><path stroke-linejoin="round" stroke-width="2.08" d="M6.592 13.12h18.8m-15.088-2.56V6.512m0 12.928v-4.048M8.416 27.376v.704c0 .24.096.464.272.64.16.176.4.272.64.272h1.648c.24 0 .464-.096.64-.272a.87.87 0 0 0 .272-.64v-.704m8.208 0v.704c0 .24.096.48.256.64a.934.934 0 0 0 .656.272h1.648c.24 0 .48-.096.656-.272.16-.16.256-.4.256-.64v-.704"/></symbol><symbol id="icon-toilet" viewBox="0 0 32 32"><path d="M25.092 1.882c2.278 0 3.84 1.92 4.744 3.896.904 1.939 1.449 4.48 1.525 7.228v15.529c0 .207-.038.433-.113.621-.094.188-.207.376-.358.508a1.48 1.48 0 0 1-.546.339 1.634 1.634 0 0 1-.602.113l-.207-.038-4.442-.734-4.442.734a1.51 1.51 0 0 1-.584 0l-.188-.056-4.198-1.393-4.216 1.393c-.226.075-.452.094-.678.075a1.958 1.958 0 0 1-.659-.226 2.01 2.01 0 0 1-.489-.489 2.113 2.113 0 0 1-.226-.659v-4.781c-.847.866-1.882 1.468-3.144 1.468-2.278 0-3.84-1.939-4.762-3.915C.547 19.406.001 16.62.001 13.646c0-2.993.546-5.779 1.506-7.868.866-1.882 2.334-3.727 4.461-3.896h19.125zm0 3.125H10.635c.132.245.264.508.376.772.979 2.089 1.525 4.875 1.525 7.868v12.725l2.635-.885c.339-.113.678-.113.998 0l4.348 1.449 4.311-.734c.169-.019.358-.019.527 0l2.88.489V13.646c0-2.654-.508-4.969-1.242-6.569-.791-1.732-1.581-2.071-1.901-2.071zm-18.824 0c-.32 0-1.111.339-1.901 2.071-.734 1.6-1.242 3.915-1.242 6.569 0 2.635.508 4.951 1.242 6.551.791 1.732 1.581 2.071 1.901 2.071s1.111-.339 1.901-2.071c.734-1.6 1.242-3.915 1.242-6.551 0-2.654-.508-4.969-1.242-6.569-.791-1.732-1.581-2.071-1.901-2.071zm0 5.497c.866 0 1.562 1.393 1.562 3.144 0 1.732-.696 3.125-1.562 3.125s-1.562-1.393-1.562-3.125c0-1.751.696-3.144 1.562-3.144z"/></symbol></defs></svg>